Coordinates
version=1
nRows=17
nColumns=33
inDegrees=yes

Units are S.I. units (second, meters, Newtons, ...)
Angles are in degrees.

endheader
time	ground_thorax_rot_x	ground_thorax_rot_y	ground_thorax_rot_z	ground_thorax_tx	ground_thorax_ty	ground_thorax_tz	clav_prot_r	clav_elev_r	scapula_abduction_r	scapula_elevation_r	scapula_upward_rot_r	scapula_winging_r	shoulder_elv_r	plane_of_elev_r	axial_rot_r	elbow_flexion_r	pro_sup_r	wrist_flex_r	wrist_dev_r	clav_prot_l	clav_elev_l	scapula_abduction_l	scapula_elevation_l	scapula_upward_rot_l	scapula_winging_l	shoulder_elv_l	plane_of_elev_l	axial_rot_l	elbow_flexion_l	pro_sup_l	wrist_flex_l	wrist_dev_l
      7.32000000	     22.75430160	     33.07679978	     51.05242092	    -39.64402479	    829.56063370	    -45.18333399	     13.66947755	     34.93091668	     28.92456814	     45.00000000	    -45.00000000	    273.11246209	  -1367.74958368	     22.21299823	   -166.07298077	   2518.87530015	    166.42539869	     14.01431306	     15.41410556	     -9.09966093	    -45.00000000	    -39.21160980	     45.00000000	    -45.00000000	   3703.30519698	  -2441.37401848	     26.33559569	     33.80279496	   1067.73769765	     38.04782197	     14.73936295	    -16.37260489
      7.33000000	     22.75156241	     33.08313789	     51.13794815	    -38.25644303	    828.77191941	    -45.12149829	     13.54991531	     35.09783088	     29.09235014	     45.00000000	    -45.00000000	    273.31060400	  -1367.84549708	     21.94198888	   -166.22018917	   2518.79199256	    166.73729416	     14.14069256	     15.11039221	     -9.11155264	    -45.00000000	    -39.09433867	     45.00000000	    -45.00000000	   3703.35735137	  -2441.55871909	     26.47613640	     33.79422345	   1067.77573151	     38.30122907	     14.68362932	    -16.23715810
      7.34000000	     22.45846116	     33.22919791	     51.60295079	    -36.87890566	    827.97642759	    -45.05402045	     13.65318740	     34.96591102	     28.95754535	     45.00000000	    -45.00000000	    273.27277408	  -1367.89115903	     22.14009794	   -166.22280686	   2518.96073438	    167.11102641	     13.92395798	     15.39414132	     -9.30797605	    -45.00000000	    -39.09546276	     45.00000000	    -45.00000000	   3703.18787171	  -2441.44914283	     26.21483498	     33.83148788	   1067.80163077	     38.51007752	     14.62956835	    -16.17721442
      7.35000000	     22.65158367	     33.07644664	     51.37920241	    -35.51129105	    827.17567068	    -44.98180368	     13.48208371	     35.21852035	     29.09618044	     45.00000000	    -45.00000000	    273.64184562	  -1367.90473242	     21.91419037	   -166.31024675	   2518.85162986	    167.40537558	     14.14359356	     14.92490815	     -9.19899422	    -45.00000000	    -38.94857210	     45.00000000	    -45.00000000	   3703.31437586	  -2441.75866162	     26.53812011	     33.75011484	   1067.83151710	     38.72442453	     14.59633447	    -16.07687360
      7.36000000	     22.44311232	     33.20116941	     51.67246858	    -34.15421559	    826.37301416	    -44.90699790	     13.56758845	     35.14479680	     29.01569142	     45.00000000	    -45.00000000	    273.48428631	  -1368.04540190	     22.13899513	   -166.41451956	   2518.88254159	    167.83276502	     14.04441943	     15.21772062	     -9.39244676	    -45.00000000	    -38.92208055	     45.00000000	    -45.00000000	   3703.16650967	  -2441.69142316	     26.45410275	     33.90424333	   1067.81808940	     38.90705919	     14.61910824	    -16.11817811
      7.37000000	     22.12257585	     33.35229787	     52.16557328	    -32.81259199	    825.57397036	    -44.83185969	     13.61176752	     35.07783651	     28.87705009	     45.00000000	    -45.00000000	    273.76296635	  -1367.98995412	     21.94555640	   -166.50507607	   2518.93177484	    168.18367571	     13.90392397	     15.07928883	     -9.52083564	    -45.00000000	    -38.88753167	     45.00000000	    -45.00000000	   3703.04425131	  -2441.65043074	     26.19726873	     33.73499769	   1067.85365190	     39.07752749	     14.36866981	    -15.82200764
      7.38000000	     22.29433706	     33.26925429	     51.94829068	    -31.47983449	    824.77693430	    -44.75701795	     13.50206628	     35.19377421	     29.01547423	     45.00000000	    -45.00000000	    273.63994726	  -1368.15991866	     22.15791121	   -166.44698685	   2518.95020249	    168.53377798	     14.02198297	     15.20957215	     -9.50368410	    -45.00000000	    -38.82205086	     45.00000000	    -45.00000000	   3703.15836794	  -2441.93132589	     26.49408389	     33.78402583	   1067.80632372	     39.17101086	     14.61850887	    -16.08969467
      7.39000000	     22.12092697	     33.38577871	     52.19414954	    -30.15326338	    823.98041331	    -44.68105635	     13.57596250	     35.14311706	     28.86154278	     45.00000000	    -45.00000000	    273.80019421	  -1368.15033888	     22.11682611	   -166.57108139	   2518.91182107	    168.95757765	     13.94347696	     15.19174927	     -9.64026946	    -45.00000000	    -38.74443372	     45.00000000	    -45.00000000	   3703.05657387	  -2441.90599925	     26.39748868	     33.83799177	   1067.82468309	     39.31231902	     14.47438907	    -15.91430449
      7.40000000	     21.96281875	     33.44737437	     52.42966539	    -28.84879303	    823.19265746	    -44.60174969	     13.57297709	     35.18712966	     28.83052275	     45.00000000	    -45.00000000	    273.86596364	  -1368.15995593	     22.12126969	   -166.65076931	   2518.90755904	    169.33900117	     13.94686057	     15.12228220	     -9.71702690	    -45.00000000	    -38.67945214	     45.00000000	    -45.00000000	   3702.94744799	  -2441.97055376	     26.39355148	     33.75567861	   1067.83922935	     39.41578943	     14.38384972	    -15.83434151
      7.41000000	     21.68457074	     33.56994573	     52.93308276	    -27.55259583	    822.40227255	    -44.51371230	     13.57193259	     35.17356338	     28.87039632	     45.00000000	    -45.00000000	    274.08151981	  -1368.22814276	     21.90872012	   -166.75144499	   2519.04510889	    169.66398443	     13.88659103	     14.92560509	     -9.81391643	    -45.00000000	    -38.61718924	     45.00000000	    -45.00000000	   3702.90188338	  -2441.92021788	     26.13493822	     33.60113268	   1067.82239060	     39.51392658	     14.19201715	    -15.62964265
      7.42000000	     21.84970122	     33.50597220	     52.67226307	    -26.27090777	    821.60934799	    -44.41260726	     13.47780743	     35.31951499	     28.88262822	     45.00000000	    -45.00000000	    274.02209366	  -1368.28385854	     22.09129797	   -166.58989723	   2518.91929942	    170.06835870	     13.93824741	     15.11276213	     -9.87354413	    -45.00000000	    -38.57607439	     45.00000000	    -45.00000000	   3702.93270211	  -2442.21244029	     26.39646010	     33.66205492	   1067.82199689	     39.56895455	     14.34841914	    -15.78119630
      7.43000000	     21.66017274	     33.60188121	     52.94273117	    -25.00472817	    820.81032405	    -44.29467780	     13.55913367	     35.23231275	     28.78021704	     45.00000000	    -45.00000000	    274.14628734	  -1368.33180786	     22.07682043	   -166.75536097	   2518.97463074	    170.46413099	     13.89780058	     15.07765866	     -9.95253115	    -45.00000000	    -38.51319190	     45.00000000	    -45.00000000	   3702.87788377	  -2442.20695235	     26.31432887	     33.66168719	   1067.81158336	     39.65321851	     14.25221494	    -15.67632904
      7.44000000	     21.38137862	     33.72093314	     53.37884591	    -23.75357099	    820.00183390	    -44.15817479	     13.54751240	     35.26423886	     28.65115590	     45.00000000	    -45.00000000	    274.32025840	  -1368.28701319	     21.97872742	   -166.79720815	   2518.98935159	    170.79634682	     13.86863971	     14.84916573	    -10.05830217	    -45.00000000	    -38.38080962	     45.00000000	    -45.00000000	   3702.72601538	  -2442.15491595	     26.14599870	     33.45679259	   1067.78924480	     39.73694386	     14.02400805	    -15.43700537
      7.45000000	     21.46669632	     33.69305996	     53.27595450	    -22.51978733	    819.18402523	    -44.00453060	     13.48723091	     35.26836178	     28.73956749	     45.00000000	    -45.00000000	    274.29783332	  -1368.39735636	     22.06801238	   -166.67814457	   2518.96756059	    171.15804578	     13.87353927	     15.06661606	    -10.09564902	    -45.00000000	    -38.40761478	     45.00000000	    -45.00000000	   3702.85614861	  -2442.42450217	     26.30524493	     33.47137036	   1067.75304074	     39.77700975	     14.21696462	    -15.58931697
      7.46000000	     21.07604991	     33.88378538	     53.83796356	    -21.30243254	    818.35658704	    -43.83753700	     13.57670837	     35.31586382	     28.49803119	     45.00000000	    -45.00000000	    274.58061318	  -1368.34055416	     21.94588432	   -166.82430706	   2519.11095438	    171.44682659	     13.78938751	     14.67620900	    -10.25994267	    -45.00000000	    -38.21466990	     45.00000000	    -45.00000000	   3702.57566203	  -2442.22641915	     25.97352153	     33.28912050	   1067.70288538	     39.87661548	     13.80908615	    -15.16325323
      7.47000000	     21.29448308	     33.78649785	     53.46143663	    -20.10253754	    817.52234190	    -43.66297577	     13.40542861	     35.32550466	     28.74242730	     45.00000000	    -45.00000000	    274.44203618	  -1368.53236814	     22.03493853	   -166.64813408	   2519.01643645	    171.82456556	     13.84065238	     15.09478332	    -10.24490952	    -45.00000000	    -38.29244393	     45.00000000	    -45.00000000	   3702.83558413	  -2442.64767790	     26.39841833	     33.40580058	   1067.74076503	     39.89866921	     14.22072192	    -15.54414326
      7.48000000	     21.07437820	     33.86913108	     53.79155260	    -18.91684457	    816.68097820	    -43.48617594	     13.49055574	     35.32308818	     28.57889901	     45.00000000	    -45.00000000	    274.60854735	  -1368.52476728	     22.01839950	   -166.73518432	   2519.04495616	    172.17066858	     13.78931446	     14.98057257	    -10.38462891	    -45.00000000	    -38.18677977	     45.00000000	    -45.00000000	   3702.66722746	  -2442.57505618	     26.18944610	     33.35776283	   1067.72074967	     40.01610011	     14.00608990	    -15.32299980
